#N canvas 382 140 516 824 10;
#X declare -path Modules/;
#X declare -lib zexy;
#X declare -lib mrpeach;
#X declare -lib mediasettings;
#X obj 378 78 vsl 30 477 0 1 0 0 VOLUME VOLUME empty 0 -9 0 10 -204786
-1 -1 0 1;
#X text 420 308 Main Volume;
#X obj 22 108 cnv 15 170 450 empty empty empty 20 12 0 14 -233017 -66577
0;
#X obj 59 250 vsl 20 128 0 1 0 0 Player-1_activity_bodyLeft Player-1_activity_bodyLeft
empty 0 -9 0 10 -262144 -1 -1 0 1;
#X obj 22 21 tgl 50 0 PLAY PLAY empty 17 7 0 10 -262144 -4034 -1 0
1;
#X obj 59 216 bng 20 250 50 0 Player-1_triggerDiscrete_left Player-1_triggerDiscrete_left
empty 17 7 0 10 -262144 -1 -1;
#X obj 59 126 vradio 20 1 0 3 Player-1_instrument-1 Player-1_instrument-1
empty 0 -8 0 10 -262144 -1 -1 0;
#X text 82 128 Piano;
#X text 82 149 Vibraphone;
#X text 81 216 Discretes;
#X text 83 298 Activity;
#X text 77 38 Play/Stop;
#X obj 59 403 vsl 20 128 0 1 0 0 Player-1_handPositionY_left Player-1_handPositionY_left
empty 0 -9 0 10 -262144 -1 -1 0 1;
#X text 82 457 Hand height;
#X obj 196 108 cnv 15 170 450 empty empty empty 20 12 0 14 -191407
-66577 0;
#X obj 233 246 vsl 20 128 0 1 0 0 Player-1_activity_bodyRight Player-1_activity_bodyRight
empty 0 -9 0 10 -262144 -1 -1 0 1;
#X obj 232 216 bng 20 250 50 0 Player-1_triggerDiscrete_right Player-1_triggerDiscrete_right
empty 17 7 0 10 -262144 -1 -1;
#X obj 233 126 vradio 20 1 0 3 Player-2_instrument-1 Player-2_instrument-1
empty 0 -8 0 10 -262144 -1 -1 1;
#X text 256 128 Piano;
#X text 256 149 Vibraphone;
#X text 255 216 Discretes;
#X text 257 297 Activity;
#X obj 233 403 vsl 20 128 0 1 0 0 Player-1_handPositionY_right Player-1_handPositionY_right
empty 0 -9 0 10 -262144 -1 -1 0 1;
#X text 256 457 Hand height;
#X obj 22 76 cnv 15 170 30 empty empty body/left 45 15 0 14 -33289
-228856 0;
#X obj 196 76 cnv 15 170 30 empty empty body/right 45 15 0 14 -33289
-228856 0;
#X text 82 168 Mute;
#X text 256 169 Mute;
#X obj 22 201 cnv 2 344 2 empty empty empty 20 12 0 14 -1 -66577 0
;
#X obj 12 591 cnv 15 410 205 empty empty empty 20 12 0 14 -262130 -66577
0;
#X text 16 609 The patch waits for OSC streams from the TM on port
6160;
#X text 16 633 Currently used streams are:;
#X text 16 653 /player/0/activity/discrete/body/left (NA);
#X text 16 666 /player/0/activity/discrete/body/right (NA);
#X text 16 686 /player/0/activity/normal/body/left (float);
#X text 16 699 /player/0/activity/normal/body/right (float);
#X text 16 719 /player/0/position/vertical/hand/left (float);
#X text 16 732 /player/0/position/vertical/hand/right (float);
#N canvas 0 50 450 204 Code 0;
#N canvas 8 50 450 208 libs 0;
#X obj 87 49 declare -path Modules/;
#X obj 87 88 declare -lib zexy;
#X obj 87 69 declare -lib mrpeach;
#X obj 87 108 declare -lib mediasettings;
#X restore 333 27 pd libs;
#N canvas 660 394 382 279 OSC 0;
#N canvas 733 50 761 965 receive_CM 0;
#X obj 53 71 mrPeach/unpackOSC;
#X text 230 40 from CM;
#X obj 53 41 mrPeach/udpreceive 6560;
#X obj 93 104 spigot;
#X obj 53 184 mc_mapOSC /set/initialize INIT_global;
#X text 402 233 Global Parameters \; some of them should be per-player
options;
#X text 402 393 Mute;
#X text 402 473 Mode;
#X text 402 653 Set Instruments;
#X text 402 892 Get Instruments;
#X obj 53 214 mc_mapOSC /set/play PLAY;
#X obj 53 244 mc_mapOSC /set/volume VOLUME;
#X obj 53 274 mc_mapOSC /set/sensitivity SENSITIVITY;
#X obj 53 334 mc_mapOSC /set/key KEY;
#X obj 53 304 mc_mapOSC /set/evolving EVOLUTION;
#X obj 53 374 mc_mapOSC /set/player/0/mute Player-1_mute;
#X obj 53 394 mc_mapOSC /set/player/1/mute Player-1_mute;
#X obj 53 414 mc_mapOSC /set/player/2/mute Player-2_mute;
#X obj 53 454 mc_mapOSC /set/player/0/mode Player-1_mode;
#X obj 53 544 mc_mapOSC /set/player/0/soundbank/1/sound Player-1_instrument-1
;
#X obj 53 584 mc_mapOSC /set/player/0/soundbank/2/sound Player-1_instrument-2
;
#X obj 53 624 mc_mapOSC /set/player/1/soundbank/1/sound Player-1_instrument-1
;
#X obj 53 664 mc_mapOSC /set/player/1/soundbank/2/sound Player-1_instrument-2
;
#X obj 53 964 mc_mapOSC /get/player/2/soundbank/1/list get_Player-2_soundbank-1
;
#X obj 53 1004 mc_mapOSC /get/player/2/soundbank/2/list get_Player-2_soundbank-1
;
#X obj 53 804 mc_mapOSC /get/player/0/soundbank/1/list get_Player-0_soundbank-1
;
#X obj 53 844 mc_mapOSC /get/player/0/soundbank/2/list get_Player-0_soundbank-1
;
#X obj 53 884 mc_mapOSC /get/player/1/soundbank/1/list get_Player-1_soundbank-1
;
#X obj 53 924 mc_mapOSC /get/player/1/soundbank/2/list get_Player-1_soundbank-1
;
#X obj 53 474 mc_mapOSC /set/player/1/mode Player-1_mode;
#X obj 53 494 mc_mapOSC /set/player/2/mode Player-2_mode;
#X obj 53 704 mc_mapOSC /set/player/2/soundbank/1/sound Player-2_instrument-1
;
#X obj 53 744 mc_mapOSC /set/player/2/soundbank/2/sound Player-2_instrument-2
;
#X obj 93 131 print <-------------fromCM;
#X obj 224 87 r PRINT_CM;
#X connect 0 0 3 0;
#X connect 0 0 4 0;
#X connect 2 0 0 0;
#X connect 3 0 33 0;
#X connect 4 0 10 0;
#X connect 10 0 11 0;
#X connect 11 0 12 0;
#X connect 12 0 14 0;
#X connect 13 0 15 0;
#X connect 14 0 13 0;
#X connect 15 0 16 0;
#X connect 16 0 17 0;
#X connect 17 0 18 0;
#X connect 18 0 29 0;
#X connect 19 0 20 0;
#X connect 20 0 21 0;
#X connect 21 0 22 0;
#X connect 22 0 31 0;
#X connect 23 0 24 0;
#X connect 25 0 26 0;
#X connect 26 0 27 0;
#X connect 27 0 28 0;
#X connect 28 0 23 0;
#X connect 29 0 30 0;
#X connect 30 0 19 0;
#X connect 31 0 32 0;
#X connect 32 0 25 0;
#X connect 34 0 3 1;
#X restore 50 195 pd receive_CM;
#N canvas 700 62 660 672 sendTo_CM 0;
#X obj 274 592 mrPeach/udpsend;
#X obj 274 562 mrPeach/packOSC;
#X msg 66 367 connect 127.0.0.1 6065;
#X obj 389 367 spigot;
#X obj 428 337 r PRINT_CM;
#X obj 297 206 s requestAlphabetPatterns;
#X msg 131 236 send /set/loaded;
#N canvas 503 133 1418 523 sendInstruments 0;
#X msg 68 307 send /set/player/0/soundbank/2/list Piano Vibraphone
Harp Contrabass Guitar;
#X obj 616 458 outlet;
#X obj 570 22 inlet;
#X obj 570 72 t b b b b b b;
#X obj 48 176 r get_Player-0_soundbank-1;
#X obj 68 196 r get_Player-0_soundbank-2;
#X obj 488 176 r get_Player-1_soundbank-1;
#X obj 508 196 r get_Player-1_soundbank-2;
#X obj 928 176 r get_Player-2_soundbank-1;
#X obj 948 196 r get_Player-2_soundbank-2;
#X msg 508 307 send /set/player/1/soundbank/2/list Piano Vibraphone
Harp Contrabass Guitar;
#X msg 948 307 send /set/player/2/soundbank/2/list Piano Vibraphone
Harp Contrabass Guitar;
#X msg 928 257 send /set/player/2/soundbank/1/list Piano Vibraphone
Harp Contrabass Guitar;
#X msg 488 257 send /set/player/1/soundbank/1/list Piano Vibraphone
Harp Contrabass Guitar;
#X msg 48 257 send /set/player/0/soundbank/1/list Piano Vibraphone
Harp Contrabass Guitar;
#X connect 0 0 1 0;
#X connect 2 0 3 0;
#X connect 3 0 14 0;
#X connect 3 1 0 0;
#X connect 3 2 13 0;
#X connect 3 3 10 0;
#X connect 3 4 12 0;
#X connect 3 5 11 0;
#X connect 4 0 14 0;
#X connect 5 0 0 0;
#X connect 6 0 13 0;
#X connect 7 0 10 0;
#X connect 8 0 12 0;
#X connect 9 0 11 0;
#X connect 10 0 1 0;
#X connect 11 0 1 0;
#X connect 12 0 1 0;
#X connect 13 0 1 0;
#X connect 14 0 1 0;
#X restore 320 176 pd sendInstruments;
#X obj 274 95 t b b b;
#X obj 131 95 del 100;
#X obj 389 407 print --------->toCM;
#X msg 274 236 send /set/ME/ready;
#X obj 274 45 r INIT_global;
#X obj 66 45 inlet;
#X connect 1 0 0 0;
#X connect 2 0 0 0;
#X connect 3 0 10 0;
#X connect 4 0 3 1;
#X connect 6 0 1 0;
#X connect 6 0 3 0;
#X connect 7 0 1 0;
#X connect 7 0 3 0;
#X connect 8 0 11 0;
#X connect 8 1 5 0;
#X connect 8 2 7 0;
#X connect 9 0 6 0;
#X connect 11 0 1 0;
#X connect 11 0 3 0;
#X connect 12 0 8 0;
#X connect 13 0 2 0;
#X connect 13 0 9 0;
#X restore 50 155 pd sendTo_CM;
#N canvas 521 50 468 363 receive_TM 0;
#X obj 53 71 mrPeach/unpackOSC;
#X obj 93 104 spigot;
#X obj 93 131 print <-------fromTM;
#X text 230 40 from TM;
#X obj 224 87 r PRINT_TM;
#X obj 53 41 mrPeach/udpreceive 6160;
#X obj 53 196 mc_mapGroup player/0 Player-1;
#X obj 53 226 mc_mapGroup player/1 Player-1;
#X obj 53 256 mc_mapGroup player/2 Player-2;
#X connect 0 0 1 0;
#X connect 0 0 6 0;
#X connect 1 0 2 0;
#X connect 4 0 1 1;
#X connect 5 0 0 0;
#X connect 6 0 7 0;
#X connect 7 0 8 0;
#X restore 190 195 pd receive_TM;
#N canvas 942 229 539 323 sendTo_TM 0;
#X obj 261 247 mrPeach/udpsend;
#X obj 261 197 mrPeach/packOSC;
#X obj 83 52 loadbang;
#X msg 83 144 connect 127.0.0.1 6061;
#X obj 261 52 r requestTrackingStream;
#X obj 261 114 list prepend send;
#X obj 261 144 list trim;
#X connect 1 0 0 0;
#X connect 2 0 3 0;
#X connect 3 0 0 0;
#X connect 4 0 5 0;
#X connect 5 0 6 0;
#X connect 6 0 1 0;
#X restore 190 155 pd sendTo_TM;
#N canvas 0 50 373 276 hide 0;
#X obj 59 38 r requestTrackingStream;
#X obj 59 74 list trim;
#X obj 59 114 spigot;
#X obj 168 97 r PRINT_TM;
#X obj 59 148 print -------------->toTM;
#X connect 0 0 1 0;
#X connect 1 0 2 0;
#X connect 2 0 4 0;
#X connect 3 0 2 1;
#X restore 232 296 pd hide;
#X obj 50 45 loadbang;
#X connect 5 0 1 0;
#X restore 34 27 pd OSC;
#N canvas 839 28 760 474 init 0;
#X obj 40 38 mc_init setScale 3;
#X obj 540 128 mc_init chord_note_3 1;
#X obj 540 148 mc_init chord_note_5 1;
#X obj 40 58 mc_init Player-1_playMode_selection 0;
#N canvas 0 50 488 670 chooseMIDISynth 0;
#X obj 97 127 mediasettings/midisettings;
#X msg 97 74 listdevices;
#X obj 97 167 route devicelist;
#X obj 97 559 list prepend midi-dialog;
#X obj 97 581 list trim;
#X obj 97 603 s pd;
#X obj 97 197 route out;
#X obj 97 317 s2l;
#X obj 97 277 unpack s f;
#X obj 97 387 route Microsoft;
#X obj 97 347 list trim;
#X obj 97 492 f;
#X obj 97 417 route GS;
#X msg 97 447 bang;
#X msg 97 537 0 0 0 0 0 0 0 0 0 \$1;
#X obj 97 23 loadbang;
#X connect 0 0 2 0;
#X connect 1 0 0 0;
#X connect 2 0 6 0;
#X connect 3 0 4 0;
#X connect 4 0 5 0;
#X connect 6 0 8 0;
#X connect 7 0 10 0;
#X connect 8 0 7 0;
#X connect 8 1 11 1;
#X connect 9 0 12 0;
#X connect 10 0 9 0;
#X connect 11 0 14 0;
#X connect 12 0 13 0;
#X connect 13 0 11 0;
#X connect 14 0 3 0;
#X restore 578 358 pd chooseMIDISynth;
#X obj 40 268 mc_init Player-1_velocityFactor 0.7;
#X obj 40 128 mc_init Player-1_arpeggioNote_3 1;
#X obj 40 148 mc_init Player-1_arpeggioNote_5 1;
#X obj 40 168 mc_init Player-1_arpeggioNote_7 1;
#X obj 290 128 mc_init Player-2_arpeggioNote_3 1;
#X obj 290 148 mc_init Player-2_arpeggioNote_5 1;
#X obj 290 168 mc_init Player-2_arpeggioNote_7 1;
#X obj 40 288 mc_init Player-2_velocityFactor 0.7;
#X obj 511 208 mc_init Player-1_mainVolume 1;
#X obj 511 228 mc_init Player-2_mainVolume 1;
#X obj 40 328 mc_init Player-1_mode 0;
#X obj 40 348 mc_init Player-2_mode 0;
#X obj 270 208 mc_init Player-1_instrument-2 2;
#X obj 270 228 mc_init Player-2_instrument-2 4;
#X obj 40 208 mc_init Player-1_instrument-1 0;
#X obj 40 228 mc_init Player-2_instrument-1 1;
#X obj 348 32 mc_init PRINT_CM 0;
#X obj 348 52 mc_init PRINT_TM 0;
#X obj 343 428 s pd;
#X msg 343 396 dsp 1;
#X obj 343 364 del 1000;
#X obj 343 334 loadbang;
#X connect 24 0 23 0;
#X connect 25 0 24 0;
#X connect 26 0 25 0;
#X restore 333 47 pd init;
#N canvas 1198 660 475 278 RuleSet 0;
#N canvas 1162 148 450 630 change 0;
#X obj 57 27 r Player-1_lastNote;
#X obj 57 137 t f b f;
#X obj 57 167 f;
#X obj 57 197 -;
#X obj 57 237 moses 0;
#X obj 166 379 f;
#X obj 196 379 + 1;
#X msg 181 355 0;
#X obj 76 379 f;
#X obj 106 379 + 1;
#X msg 91 355 0;
#X obj 122 571 s nextHarmonyStep;
#X obj 147 292 t b b b;
#X obj 57 292 t b b b;
#X obj 73 487 spigot;
#X obj 163 487 spigot;
#X obj 194 27 r Player-1_playMode_selection;
#X obj 194 67 == 0;
#X obj 194 97 change;
#X obj 194 127 sel 1;
#X obj 106 439 >= 4;
#X obj 196 439 >= 4;
#X obj 57 97 spigot 1;
#X connect 1 0 2 1;
#X connect 1 1 2 0;
#X connect 1 2 3 1;
#X connect 2 0 3 0;
#X connect 3 0 4 0;
#X connect 4 0 13 0;
#X connect 4 1 12 0;
#X connect 5 0 6 0;
#X connect 6 0 5 1;
#X connect 6 0 21 0;
#X connect 7 0 5 0;
#X connect 8 0 9 0;
#X connect 9 0 8 1;
#X connect 9 0 20 0;
#X connect 10 0 8 0;
#X connect 12 0 10 0;
#X connect 12 1 5 0;
#X connect 12 2 14 0;
#X connect 13 0 7 0;
#X connect 13 1 8 0;
#X connect 13 2 15 0;
#X connect 14 0 11 0;
#X connect 15 0 11 0;
#X connect 16 0 17 0;
#X connect 17 0 18 0;
#X connect 17 0 22 1;
#X connect 18 0 19 0;
#X connect 19 0 10 0;
#X connect 19 0 7 0;
#X connect 20 0 14 1;
#X connect 21 0 15 1;
#X connect 22 0 1 0;
#X restore 17 112 pd change harmony after a few directional steps;
#N canvas 512 50 1275 493 pitchControl 0;
#X obj 81 65 r Player-1_centerX;
#X obj 81 305 spigot;
#X obj 251 65 r Player-1_height;
#X obj 251 305 spigot;
#X obj 81 425 s Player-1_pitchCenter;
#X obj 401 65 r Player-1_mode;
#X obj 401 95 sel 0 1 2;
#X obj 401 198 unpack f f;
#X msg 401 124 1 0;
#X msg 421 144 0 1;
#X msg 441 164 0 0;
#X obj 661 305 spigot;
#X obj 831 305 spigot;
#X obj 981 95 sel 0 1 2;
#X obj 981 198 unpack f f;
#X msg 981 124 1 0;
#X msg 1001 144 0 1;
#X msg 1021 164 0 0;
#X obj 661 65 r Player-2_centerX;
#X obj 831 65 r Player-2_height;
#X obj 981 65 r Player-2_mode;
#X obj 661 425 s Player-2_pitchCenter;
#X connect 0 0 1 0;
#X connect 1 0 4 0;
#X connect 2 0 3 0;
#X connect 3 0 4 0;
#X connect 5 0 6 0;
#X connect 6 0 8 0;
#X connect 6 1 9 0;
#X connect 6 2 10 0;
#X connect 7 0 1 1;
#X connect 7 1 3 1;
#X connect 8 0 7 0;
#X connect 9 0 7 0;
#X connect 10 0 7 0;
#X connect 11 0 21 0;
#X connect 12 0 21 0;
#X connect 13 0 15 0;
#X connect 13 1 16 0;
#X connect 13 2 17 0;
#X connect 14 0 11 1;
#X connect 14 1 12 1;
#X connect 15 0 14 0;
#X connect 16 0 14 0;
#X connect 17 0 14 0;
#X connect 18 0 11 0;
#X connect 19 0 12 0;
#X connect 20 0 13 0;
#X restore 17 22 pd pitchControl;
#N canvas 281 50 678 356 chordTrigger 0;
#X obj 81 225 s Player-1_chord_trigger;
#X obj 351 225 s Player-2_chord_trigger;
#X obj 81 65 r Player-1_doubleArmSide_trigger;
#X obj 351 65 r Player-2_doubleArmSide_trigger;
#X connect 2 0 0 0;
#X connect 3 0 1 0;
#X restore 17 42 pd chordTrigger;
#N canvas 281 50 678 356 VelocityControl 0;
#X obj 81 225 s Player-1_velocityFactor;
#X obj 351 225 s Player-2_velocityFactor;
#X obj 81 65 r Player-1_activity_bodyLeft;
#X obj 351 65 r Player-1_activity_bodyRight;
#X connect 2 0 0 0;
#X connect 3 0 1 0;
#X restore 17 62 pd VelocityControl;
#N canvas 281 50 385 332 VolumeControl 0;
#X obj 81 65 r VOLUME;
#X obj 81 225 s Player-1_mainVolume;
#X obj 101 205 s Player-2_mainVolume;
#X connect 0 0 1 0;
#X connect 0 0 2 0;
#X restore 17 82 pd VolumeControl;
#N canvas 0 50 450 300 discretes 0;
#X obj 68 48 r Player-1_triggerDiscrete_left;
#X obj 118 68 r Player-1_triggerDiscrete_right;
#X obj 68 158 s Player-1_triggerDiscrete_any;
#X obj 118 128 s Player-2_triggerDiscrete_any;
#X connect 0 0 2 0;
#X connect 1 0 3 0;
#X restore 264 43 pd discretes;
#N canvas 612 64 450 300 handHeights 0;
#X obj 52 47 r Player-1_handPositionY_left;
#X obj 72 67 r Player-1_handPositionY_right;
#X obj 52 235 s Player-1_pitchCenter;
#X obj 72 205 s Player-2_pitchCenter;
#X connect 0 0 2 0;
#X connect 1 0 3 0;
#X restore 17 149 pd handHeights;
#N canvas 0 50 450 300 activity 0;
#X obj 81 221 s Player-1_tempoFactor;
#X obj 81 65 r Player-1_activity_bodyLeft;
#X obj 111 85 r Player-1_activity_bodyRight;
#X obj 111 241 s Player-2_tempoFactor;
#X connect 1 0 0 0;
#X connect 2 0 3 0;
#X restore 17 169 pd activity;
#N canvas 0 50 450 605 changeHarmonyAfterStillness 0;
#X obj 112 78 r Player-1_activity_bodyLeft;
#X obj 172 98 r Player-1_activity_bodyRight;
#X obj 112 194 <= 0.05;
#X obj 172 194 <= 0.05;
#X obj 112 234 change;
#X obj 172 234 change;
#X obj 112 324 &&;
#X obj 172 264 t b f;
#X obj 112 354 sel 1;
#X obj 112 454 del 1000;
#X msg 144 402 stop;
#X obj 112 515 s nextHarmonyStep;
#X connect 0 0 2 0;
#X connect 1 0 3 0;
#X connect 2 0 4 0;
#X connect 3 0 5 0;
#X connect 4 0 6 0;
#X connect 5 0 7 0;
#X connect 6 0 8 0;
#X connect 7 0 6 0;
#X connect 7 1 6 1;
#X connect 8 0 9 0;
#X connect 8 1 10 0;
#X connect 9 0 11 0;
#X connect 10 0 9 0;
#X restore 34 212 pd changeHarmonyAfterStillness;
#X restore 333 67 pd RuleSet;
#X obj 34 106 mc_Player Player-1 1 2;
#N canvas 1056 206 680 258 scaler 0;
#X obj 88 140 mc_noteSet chosenScale;
#X obj 239 170 s noteCount_global;
#X msg 88 110 scalePreset \$1 \, noteRange 24 108;
#X obj 88 80 f 3;
#X obj 88 40 r setScale;
#X obj 58 41 bng 15 250 50 0 empty empty empty 17 7 0 10 -262144 -1
-1;
#X obj 476 100 mc_harmonyModule;
#X obj 476 71 bng 15 250 50 0 empty empty empty 17 7 0 10 -262144 -1
-1;
#X obj 476 40 r nextHarmonyStep;
#X obj 476 140 s currentDegree;
#X connect 0 1 1 0;
#X connect 2 0 0 0;
#X connect 3 0 2 0;
#X connect 4 0 3 0;
#X connect 5 0 3 0;
#X connect 6 0 9 0;
#X connect 7 0 6 0;
#X connect 8 0 7 0;
#X restore 333 87 pd scaler;
#X obj 34 48 tgl 15 0 PRINT_CM PRINT_CM empty 17 7 0 10 -262144 -1
-1 0 1;
#X text 54 47 Print CM messages;
#X obj 34 68 tgl 15 0 PRINT_TM PRINT_TM empty 17 7 0 10 -262144 -1
-1 1 1;
#X text 54 67 Print TM messages;
#X obj 34 126 mc_Player Player-2 3 4;
#X restore 362 773 pd Code;
#X obj 19 755 tgl 15 0 PRINT_CM PRINT_CM empty 17 7 0 10 -262144 -1
-1 0 1;
#X text 39 754 Print CM messages;
#X obj 19 775 tgl 15 0 PRINT_TM PRINT_TM empty 17 7 0 10 -262144 -1
-1 1 1;
#X text 39 774 Print TM messages;
